<svg width="157" height="160" viewBox="0 0 157 160" fill="none" xmlns="http://www.w3.org/2000/svg">
<path d="M147.804 90.646C147.804 128.949 116.799 160 78.5529 160C40.3068 160 9.30225 128.949 9.30225 90.646C9.30225 52.3428 40.3068 21.292 78.5529 21.292C116.799 21.292 147.804 52.3428 147.804 90.646Z" fill="black"/>
<path fill-rule="evenodd" clip-rule="evenodd" d="M78.5529 157.313C115.311 157.313 145.116 127.469 145.116 90.646C145.116 53.8232 115.311 23.9793 78.5529 23.9793C41.7948 23.9793 11.9896 53.8232 11.9896 90.646C11.9896 127.469 41.7948 157.313 78.5529 157.313ZM78.5529 160C116.799 160 147.804 128.949 147.804 90.646C147.804 52.3428 116.799 21.292 78.5529 21.292C40.3068 21.292 9.30225 52.3428 9.30225 90.646C9.30225 128.949 40.3068 160 78.5529 160Z" fill="white"/>
<path d="M139.742 90.646C139.742 124.497 112.346 151.938 78.5529 151.938C44.7593 151.938 17.3643 124.497 17.3643 90.646C17.3643 56.7954 44.7593 29.354 78.5529 29.354C112.346 29.354 139.742 56.7954 139.742 90.646Z" fill="black"/>
<path fill-rule="evenodd" clip-rule="evenodd" d="M78.5529 149.871C111.201 149.871 137.674 123.358 137.674 90.646C137.674 57.9337 111.201 31.4212 78.5529 31.4212C45.9043 31.4212 19.4314 57.9337 19.4314 90.646C19.4314 123.358 45.9043 149.871 78.5529 149.871ZM78.5529 151.938C112.346 151.938 139.742 124.497 139.742 90.646C139.742 56.7954 112.346 29.354 78.5529 29.354C44.7593 29.354 17.3643 56.7954 17.3643 90.646C17.3643 124.497 44.7593 151.938 78.5529 151.938Z" fill="#FF0404"/>
<path d="M132.713 90.6459C132.713 120.615 108.419 144.909 78.4496 144.909C48.4807 144.909 24.186 120.615 24.186 90.6459C24.186 60.6769 48.4807 36.3823 78.4496 36.3823C108.419 36.3823 132.713 60.6769 132.713 90.6459Z" fill="black"/>
<path fill-rule="evenodd" clip-rule="evenodd" d="M78.4496 143.462C107.619 143.462 131.266 119.816 131.266 90.6459C131.266 61.4761 107.619 37.8294 78.4496 37.8294C49.2798 37.8294 25.6331 61.4761 25.6331 90.6459C25.6331 119.816 49.2798 143.462 78.4496 143.462ZM78.4496 144.909C108.419 144.909 132.713 120.615 132.713 90.6459C132.713 60.6769 108.419 36.3823 78.4496 36.3823C48.4807 36.3823 24.186 60.6769 24.186 90.6459C24.186 120.615 48.4807 144.909 78.4496 144.909Z" fill="white"/>
<path d="M78.5016 2.6875L154.676 134.625H2.32715L78.5016 2.6875Z" fill="black"/>
<path d="M78.5017 14.8838L144.114 128.527H12.8896L78.5017 14.8838Z" fill="black"/>
<path d="M70.5791 60.3957C67.2731 60.9539 60.1031 62.8859 54.2641 64.818C44.3034 68.1239 40.3105 69.1114 36.7899 69.1114C35.1155 69.1114 32.4547 68.4244 33.484 69.4978C34.5132 70.5711 38.2497 71.3869 41.8132 71.6016C45.7631 71.8162 49.7989 71.0434 58.214 68.4244C72.6399 63.9593 77.5344 64.0452 98.2287 69.3261C112.053 72.8467 113.17 72.9755 118.451 71.6874C120.683 71.1293 121.545 71.3869 122.529 70.3565C123.514 69.3261 121.156 69.9701 119.481 69.9701C115.918 69.9701 112.526 69.1543 100.633 65.462C90.6293 62.3278 87.7098 61.555 82.8153 60.6963C79.6382 60.1381 73.0693 59.9664 70.5791 60.3957Z" fill="#FF0404"/>
<path d="M69.043 68.5532C64.7066 69.2401 60.4991 70.3135 54.016 72.3314C49.8944 73.5765 45.1716 74.8645 43.4972 75.165C39.8478 75.7661 38.9032 76.2384 39.0749 77.2688C39.1608 77.784 38.2592 78.9432 36.5418 80.5747C34.0517 82.8932 33.837 83.2367 33.837 84.9111C33.837 85.8986 33.5227 86.8458 34.074 86.9887C34.6253 87.1316 35.5543 86.1562 36.5418 85.5122C39.8907 83.1937 42.5955 82.7644 45.9015 83.9236C48.3058 84.7823 49.5938 86.0274 50.1949 88.0453C51.1394 91.1365 48.8889 95.0902 45.558 95.1294C42.2271 95.1686 38.8639 93.297 37.8299 94.1419C36.7959 94.9869 38.0445 94.9147 39.2467 96.2028C43.4542 100.668 47.9623 107.237 51.6976 114.321L53.8872 118.529L54.1448 116.897C54.3166 115.995 54.4454 109.426 54.4454 102.299C54.4454 95.0435 53.6429 90.0721 54.8318 89.1186C56.0207 88.1652 60.3703 92.768 65.3936 98.1777C79.0467 112.947 85.7014 117.842 95.2328 120.246C101.544 121.834 109.015 120.89 112.922 117.927C117 114.879 118.46 108.611 116.185 104.06C112.578 96.8468 100.299 97.9201 98.2382 105.648C97.5083 108.267 99.0181 111.214 99.9556 112.131C100.893 113.048 101.299 113.831 104.034 113.763C106.77 113.695 106.803 113.446 107.684 112.561C108.565 111.676 109.659 105.734 107.04 104.747C105.194 104.06 105.752 103.33 107.941 103.587C113.008 104.146 114.339 109.856 110.389 114.192C108.542 116.296 106.525 116.897 101.845 116.897C99.1398 116.854 97.5513 116.554 94.6318 115.566C88.2775 113.376 84.9286 110.972 75.3543 101.913C70.5886 97.4049 65.9947 92.9827 65.1789 92.0811C63.7621 90.5355 63.7192 90.4925 64.7496 90.7931C65.3507 90.9648 69.8587 91.1795 74.8391 91.3083C82.095 91.48 84.5852 91.3941 87.7194 90.836C92.3562 89.9773 98.6676 88.0882 104.249 85.8556C106.482 84.997 110.947 83.4943 114.124 82.5068C117.301 81.5622 120.736 80.403 121.766 79.9307L123.612 79.115L119.619 78.9003C116.142 78.6856 114.253 78.2134 105.322 75.3797C93.7731 71.6874 87.0324 69.8841 81.0646 68.8966C77.2864 68.2956 71.5761 68.1238 69.043 68.5532ZM88.3634 74.3493C93.4725 75.5514 106.253 78.036 106.482 80.4889C106.71 82.9418 98.5817 84.0953 93.3008 85.4263C88.1058 86.7573 78.0694 88.6034 77.3293 87.8306C76.5891 87.0578 77.7586 86.929 78.6173 86.1132C81.6656 83.3225 82.8249 78.2563 81.2363 74.4781C81.2363 74.4781 80.2543 73.2211 80.5923 72.8895C80.9302 72.5579 82.6531 73.1471 82.6531 73.1471C83.7694 73.3189 86.3455 73.8341 88.3634 74.3493ZM78.4456 74.4351C81.8374 78.0416 78.4456 85.8986 73.0359 87.0578C67.9696 88.1741 63.7621 85.9415 62.6029 81.5193C62.0592 79.5336 62.5177 77.1965 63.362 75.7621C65.1163 72.4546 74.3152 69.7672 78.4456 74.4351ZM60.0268 77.9128C60.0268 81.2187 60.7138 83.6231 62.0447 85.0828C62.4311 85.5122 62.517 85.8556 62.2594 85.8556C61.5295 85.8556 54.5742 83.3225 50.2808 81.5193C47.533 80.3601 46.7654 79.1731 44.3129 79.8448C41.8605 80.5166 42.3809 79.2867 47.1895 78.1704C49.465 77.6552 53.0285 76.6677 55.1323 75.9808C57.2361 75.2938 58.248 74.4503 59.5116 74.6927C60.7752 74.9352 60.0268 75.6373 60.0268 77.9128Z" fill="#FF0404"/>
<path fill-rule="evenodd" clip-rule="evenodd" d="M114.877 68.3785C116.224 68.6637 117.291 68.8173 118.274 68.8876L78.5017 0L39.4012 67.7241L39.2803 67.9336C40.286 67.8099 41.4123 67.5997 42.763 67.2759L42.8724 67.0864L78.5017 5.37467L114.877 68.3785ZM36.996 71.8901L0 135.969H157.003L124.688 79.9961L122.404 80.8705L122.397 80.8736C122.325 80.9064 122.243 80.9419 122.152 80.98L152.349 133.282H4.65461L33.0375 84.1211C33.0874 83.5527 33.224 83.0168 33.5854 82.4375C33.874 81.9748 34.3015 81.4962 34.8864 80.9186L39.8009 72.4064C38.8469 72.2696 37.8806 72.0889 36.996 71.8901ZM117.549 73.0074L120.371 77.8948L123.574 78.0669L120.264 72.3339C119.836 72.4522 119.38 72.5724 118.908 72.6903L118.905 72.691L118.902 72.6917C118.425 72.8081 117.978 72.9139 117.549 73.0074Z" fill="white"/>
<path fill-rule="evenodd" clip-rule="evenodd" d="M106.966 66.2525C108.014 66.5648 108.966 66.8427 109.837 67.0896L78.5019 12.8164L47.884 65.8481C48.7811 65.5739 49.7497 65.2693 50.8002 64.9315L78.5019 16.9508L106.966 66.2525ZM50.3491 65.7129L47.6789 66.2034L50.349 65.7129L50.3491 65.7129ZM43.9519 72.6588C44.7518 72.6353 45.5765 72.5707 46.4536 72.46L45.7784 73.6296C44.8095 73.875 44.0248 74.057 43.5286 74.1465C43.3634 74.1737 43.2025 74.2008 43.0459 74.228L43.9519 72.6588ZM35.341 87.5733L11.0996 129.561H145.904L118.591 82.2533C117.949 82.4654 117.269 82.6844 116.578 82.9008L142.324 127.493H14.6801L39.0182 85.3386C38.4826 85.6157 37.925 85.955 37.337 86.362L37.3253 86.3702L37.3133 86.378C36.798 86.7141 36.1636 87.0934 35.6663 87.3842C35.5501 87.4522 35.4406 87.5158 35.341 87.5733ZM115.73 77.2979L113.519 73.4672C112.934 73.4585 112.315 73.4164 111.631 73.3366C111.43 73.3131 111.223 73.2864 111.01 73.2563L112.923 76.5693C114.028 76.8845 114.933 77.1196 115.73 77.2979Z" fill="#FF0404"/>
<path fill-rule="evenodd" clip-rule="evenodd" d="M98.3387 64.7464C98.9836 64.9466 99.6617 65.1581 100.376 65.3819C99.6617 65.1581 98.9836 64.9466 98.3387 64.7464ZM78.5017 27.4937L99.6136 64.0606C98.8979 63.8375 98.2208 63.6273 97.5781 63.429L78.5017 30.3877L60.3256 61.8696C59.6578 62.0618 58.9848 62.2595 58.3133 62.461L78.5017 27.4937ZM53.4314 70.9167C54.0673 70.7418 54.7326 70.5524 55.4307 70.3478L55.1035 70.9146C54.6513 71.0527 54.1881 71.1956 53.7129 71.3435C53.5013 71.4074 53.2882 71.4714 53.0742 71.5354L53.4314 70.9167ZM45.3917 84.8418L40.2835 93.6895C40.7729 93.7816 41.2915 93.8652 41.8122 93.9357L46.737 85.4058C46.3916 85.2258 46.0005 85.0569 45.5567 84.8983C45.5014 84.879 45.4465 84.8601 45.3917 84.8418ZM38.4503 96.8646L23.8101 122.222H133.193L111.395 84.4658C110.928 84.6186 110.458 84.7743 109.992 84.9303L130.687 120.775H109.635C108.23 121.266 106.697 121.613 105.112 121.819C101.845 122.242 98.2689 122.076 94.9805 121.249L94.98 121.248C94.3935 121.1 93.8178 120.943 93.2506 120.775H54.5789L54.4188 121.789L53.8911 120.775H26.3164L39.4746 97.9846C39.1462 97.6145 38.8193 97.2567 38.4944 96.9119L38.4927 96.9101L38.491 96.9083C38.4774 96.8937 38.4638 96.8792 38.4503 96.8646ZM105.568 74.3733L104.121 71.8673C103.509 71.719 102.861 71.5595 102.173 71.3884L103.522 73.7234C104.187 73.9333 104.868 74.1499 105.568 74.3733ZM54.3442 72.2298C54.2354 72.2635 54.126 72.2974 54.016 72.3317C54.0947 72.3072 54.1732 72.2828 54.2513 72.2586L54.3442 72.2298ZM105.322 75.38C105.67 75.4903 106.007 75.5971 106.334 75.7004C106.007 75.5971 105.67 75.4903 105.322 75.38ZM48.3778 79.6698L48.8608 78.8332C49.4868 78.6766 50.1539 78.5024 50.8278 78.3204L49.7512 80.185C49.2695 79.9934 48.8124 79.8216 48.3778 79.6698Z" fill="white"/>
<path d="M78.4501 74.4297C81.8419 78.0362 78.4464 85.893 73.0367 87.0522C67.9704 88.1685 63.7631 85.936 62.6038 81.5138C61.6164 77.9074 63.9341 73.1417 65.8661 74.7303C66.9395 75.6319 67.7793 78.1818 66.7059 79.6844C65.6326 81.1871 64.1736 80.9724 64.1736 80.9724C64.1736 80.9724 64.5205 82.4898 65.8274 83.6605C68.2746 85.8073 72.8272 86.0218 75.4462 84.1327C78.2799 82.1578 79.347 77.6067 77.6297 74.7731C76.6422 73.1416 77.0762 72.9699 78.4501 74.4297Z" fill="white"/>
</svg>
